<svg xmlns="http://www.w3.org/2000/svg" width="640" height="176" viewBox="0 0 640 176" role="img" aria-labelledby="sd-banner-title sd-banner-desc">
  <!-- palette: warm paper and ink from the ledger subject; moss for orphaned blocks and one rust accent on the duplicated-slot bracket. contrast against #F7F3EC: ink #33302B 11.5:1, moss #5E6B5A 5.1:1, rust #9C3D12 6.1:1. motion: the report line under the ribbon types itself during the first part of the loop and then holds, encoding the report being written after the scan; with reduced motion the line is fully visible. every number comes from running the CLI on samples/cluster-window.jsonl. -->
  <title id="sd-banner-title">SlotDrift banner: the cluster window and its report line</title>
  <desc id="sd-banner-desc">The SlotDrift wordmark, the 61-slot sample window drawn as one cell per slot with skipped slots pale, orphaned slots in moss and a rust bracket under the duplicated slots, and the real summary line records 64 findings 12 under the ribbon.</desc>
  <style>
    @media (prefers-reduced-motion: no-preference) {
      #sd-type-rect { animation: sd-type 8s steps(30, end) infinite; }
    }
    @keyframes sd-type {
      0% { width: 0; }
      30% { width: 180; }
      100% { width: 180; }
    }
  </style>
  <defs>
    <clipPath id="sd-type-clip"><rect id="sd-type-rect" x="128" y="118" width="180" height="16"/></clipPath>
  </defs>
  <rect width="640" height="176" fill="#F7F3EC"/>

  <g font-family="-apple-system, 'Segoe UI', Roboto, Helvetica, Arial, sans-serif" font-size="20" font-weight="600">
    <text x="16" y="52" fill="#33302B">slot</text>
    <text x="65" y="52" fill="#9C3D12">drift</text>
  </g>
  <text x="16" y="74" font-family="-apple-system, 'Segoe UI', Roboto, Helvetica, Arial, sans-serif" font-size="11" fill="#5E6B5A">continuity, forks, findings</text>

  <text x="128" y="32" font-family="-apple-system, 'Segoe UI', Roboto, Helvetica, Arial, sans-serif" font-size="11" fill="#33302B">61 slots, 64 records</text>

  <g stroke="#33302B" stroke-width="1">
    <g fill="#F7F3EC">
      <rect x="128" y="48" width="6" height="24"/>
      <rect x="136" y="48" width="6" height="24"/>
      <rect x="144" y="48" width="6" height="24"/>
      <rect x="152" y="48" width="6" height="24"/>
      <rect x="160" y="48" width="6" height="24"/>
      <rect x="168" y="48" width="6" height="24"/>
      <rect x="176" y="48" width="6" height="24"/>
      <rect x="184" y="48" width="6" height="24"/>
      <rect x="192" y="48" width="6" height="24"/>
      <rect x="200" y="48" width="6" height="24"/>
      <rect x="208" y="48" width="6" height="24"/>
      <rect x="216" y="48" width="6" height="24"/>
      <rect x="224" y="48" width="6" height="24"/>
      <rect x="232" y="48" width="6" height="24"/>
      <rect x="248" y="48" width="6" height="24"/>
      <rect x="256" y="48" width="6" height="24"/>
      <rect x="264" y="48" width="6" height="24"/>
      <rect x="272" y="48" width="6" height="24"/>
      <rect x="280" y="48" width="6" height="24"/>
      <rect x="288" y="48" width="6" height="24"/>
      <rect x="296" y="48" width="6" height="24"/>
      <rect x="304" y="48" width="6" height="24"/>
      <rect x="312" y="48" width="6" height="24"/>
      <rect x="320" y="48" width="6" height="24"/>
      <rect x="328" y="48" width="6" height="24"/>
      <rect x="336" y="48" width="6" height="24"/>
      <rect x="344" y="48" width="6" height="24"/>
      <rect x="352" y="48" width="6" height="24"/>
      <rect x="360" y="48" width="6" height="24"/>
      <rect x="368" y="48" width="6" height="24"/>
      <rect x="376" y="48" width="6" height="24"/>
      <rect x="384" y="48" width="6" height="24"/>
      <rect x="392" y="48" width="6" height="24"/>
      <rect x="400" y="48" width="6" height="24"/>
      <rect x="408" y="48" width="6" height="24"/>
      <rect x="416" y="48" width="6" height="24"/>
      <rect x="424" y="48" width="6" height="24"/>
      <rect x="432" y="48" width="6" height="24"/>
      <rect x="440" y="48" width="6" height="24"/>
      <rect x="448" y="48" width="6" height="24"/>
      <rect x="456" y="48" width="6" height="24"/>
      <rect x="464" y="48" width="6" height="24"/>
      <rect x="472" y="48" width="6" height="24"/>
      <rect x="480" y="48" width="6" height="24"/>
      <rect x="488" y="48" width="6" height="24"/>
      <rect x="496" y="48" width="6" height="24"/>
      <rect x="504" y="48" width="6" height="24"/>
      <rect x="512" y="48" width="6" height="24"/>
      <rect x="520" y="48" width="6" height="24"/>
      <rect x="528" y="48" width="6" height="24"/>
      <rect x="536" y="48" width="6" height="24"/>
      <rect x="544" y="48" width="6" height="24"/>
      <rect x="552" y="48" width="6" height="24"/>
      <rect x="560" y="48" width="6" height="24"/>
      <rect x="568" y="48" width="6" height="24"/>
      <rect x="576" y="48" width="6" height="24"/>
      <rect x="584" y="48" width="6" height="24"/>
    </g>
    <g fill="#DED8CD">
      <rect x="248" y="48" width="6" height="24"/>
      <rect x="256" y="48" width="6" height="24"/>
      <rect x="392" y="48" width="6" height="24"/>
    </g>
    <g fill="#5E6B5A">
      <rect x="448" y="48" width="6" height="24"/>
      <rect x="456" y="48" width="6" height="24"/>
      <rect x="464" y="48" width="6" height="24"/>
      <rect x="576" y="48" width="6" height="24"/>
      <rect x="584" y="48" width="6" height="24"/>
    </g>
  </g>
  <rect x="128" y="48" width="462" height="24" fill="none" stroke="#33302B" stroke-width="1.5"/>
  <g stroke="#9C3D12" stroke-width="2" fill="none">
    <path d="M448 76 L448 82 L470 82"/>
  </g>

  <g clip-path="url(#sd-type-clip)">
    <text x="128" y="130" font-family='"Cascadia Mono", "JetBrains Mono", Consolas, monospace' font-size="11" fill="#33302B">records: 64 | findings: 12</text>
  </g>

  <g stroke="#33302B" stroke-width="1">
    <rect x="128" y="146" width="8" height="8" fill="#F7F3EC"/>
    <rect x="216" y="146" width="8" height="8" fill="#5E6B5A"/>
    <rect x="300" y="146" width="8" height="8" fill="#DED8CD"/>
  </g>
  <g font-family="-apple-system, 'Segoe UI', Roboto, Helvetica, Arial, sans-serif" font-size="11" fill="#33302B">
    <text x="142" y="154">finalized</text>
    <text x="230" y="154">orphaned</text>
    <text x="314" y="154">skipped</text>
    <text x="430" y="154">rust bracket: duplicated slots</text>
  </g>
</svg>
